<?xml version="1.0" encoding="UTF-8" standalone="no"?>
<svg
   width="24"
   height="24"
   viewBox="0 0 24 24"
   version="1.1"
   id="svg4"
   xmlns="http://www.w3.org/2000/svg"
   xmlns:svg="http://www.w3.org/2000/svg">
  <defs
     id="defs8" />
  <path
     d="M 22,6 H 2 A 2,2 45 0 1 0,4 2,2 135 0 1 2,2 h 20 a 2,2 45 0 1 2,2 2,2 135 0 1 -2,2 z m 0,4 H 2 a 2,2 135 0 0 -2,2 2,2 45 0 0 2,2 l 20,0 a 2,2 135 0 0 2,-2 2,2 45 0 0 -2,-2 z m 0,8 H 2 a 2,2 135 0 0 -2,2 2,2 45 0 0 2,2 l 20,0 a 2,2 135 0 0 2,-2 2,2 45 0 0 -2,-2 z"
     id="path2" />
</svg>
